<?xml version="1.0" standalone="no"?>
<!DOCTYPE svg PUBLIC "-//W3C//DTD SVG 20010904//EN"
 "http://www.w3.org/TR/2001/REC-SVG-20010904/DTD/svg10.dtd">
<svg version="1.0" xmlns="http://www.w3.org/2000/svg"
 width="213.000000pt" height="213.000000pt" viewBox="0 0 213.000000 213.000000"
 preserveAspectRatio="xMidYMid meet">
<metadata>
Created by potrace 1.14, written by Peter Selinger 2001-2017
</metadata>
<g transform="translate(0.000000,213.000000) scale(0.100000,-0.100000)"
fill="#000000" stroke="none">
<path d="M922 2040 c-4 -3 -7 -135 -7 -295 1 -159 -1 -296 -3 -302 -2 -7 -19
-13 -38 -13 l-34 0 0 168 0 167 -87 -2 c-49 0 -107 -2 -129 -2 l-41 -1 -1
-225 0 -224 -29 -38 c-50 -63 -71 -115 -89 -218 -10 -56 -6 -812 5 -933 1 -9
8 -11 21 -7 11 3 73 6 137 6 87 0 126 -4 149 -15 74 -38 209 -41 256 -6 36 27
180 31 206 6 45 -40 197 -40 273 0 29 15 149 24 149 12 0 -5 7 -8 15 -8 10 0
15 10 16 28 4 169 1 850 -5 891 -12 101 -76 232 -143 295 l-28 26 0 260 c0
225 -2 260 -15 261 -63 3 -233 0 -237 -5 -4 -3 -7 -102 -7 -219 l-1 -212 -25
1 c-65 4 -59 -20 -59 252 0 136 0 272 0 302 l-1 55 -121 0 c-66 0 -123 -2
-127 -5z"/>
<path d="M1714 806 c-3 -9 -3 -29 1 -44 6 -25 7 -38 5 -74 0 -7 2 -44 5 -83 4
-38 7 -98 9 -132 1 -34 5 -65 9 -70 17 -16 24 23 20 106 -2 47 -6 120 -7 161
-1 41 -6 83 -10 92 -4 9 -5 21 -2 26 3 6 -1 15 -9 22 -12 10 -16 9 -21 -4z"/>
<path d="M1775 743 c3 -21 7 -63 9 -93 3 -67 17 -182 23 -193 2 -4 9 -4 15 -1
7 4 8 29 2 73 -4 36 -8 93 -10 126 -3 84 -13 125 -31 125 -12 0 -14 -8 -8 -37z"/>
<path d="M387 724 c-3 -19 -2 -45 2 -57 5 -12 5 -31 1 -42 -4 -11 -5 -33 -3
-50 5 -37 5 -45 0 -70 -2 -11 -2 -24 2 -30 3 -5 6 -30 6 -55 0 -33 4 -45 15
-45 12 0 15 12 13 60 -3 61 -3 74 -3 100 1 56 1 98 0 118 0 12 -1 41 -1 65 0
53 -24 58 -32 6z"/>
<path d="M320 709 c-7 -11 -10 -38 -7 -58 2 -20 0 -46 -4 -59 -5 -13 -5 -31 0
-40 5 -10 10 -42 12 -72 3 -72 8 -90 24 -90 11 0 12 18 8 83 -3 45 -10 85 -16
88 -5 4 -6 12 -1 20 5 8 9 37 9 64 1 28 3 56 6 64 7 23 -19 24 -31 0z"/>
</g>
</svg>
